<?xml version="1.0" encoding="iso-8859-1"?>
<!-- Generator: Adobe Illustrator 18.0.0, SVG Export Plug-In . SVG Version: 6.00 Build 0)  -->
<!DOCTYPE svg PUBLIC "-//W3C//DTD SVG 1.1//EN" "http://www.w3.org/Graphics/SVG/1.1/DTD/svg11.dtd">
<svg version="1.1" id="Layer_1" xmlns="http://www.w3.org/2000/svg" xmlns:xlink="http://www.w3.org/1999/xlink" x="0px" y="0px"
	 viewBox="0 0 54.666 63.123" style="enable-background:new 0 0 54.666 63.123;" xml:space="preserve">
<g>
	<g>
		<path d="M27.333,63.123L0,47.342V15.78L27.333,0l27.333,15.78v31.562L27.333,63.123z M2.236,46.051l25.097,14.49l25.097-14.49
			V17.072L27.333,2.582L2.236,17.072V46.051z"/>
	</g>
	<g>
		<polygon points="35.904,41.246 28.533,17.908 22.605,17.908 22.605,20.097 25.667,20.097 21.624,32.906 24.011,32.906 
			27.447,21.966 31.524,34.944 16.392,34.944 16.392,37.048 20.316,37.048 18.991,41.246 16.392,41.246 16.392,43.436 
			23.905,43.436 23.905,41.246 21.359,41.246 22.712,37.063 32.183,37.063 33.536,41.246 30.99,41.246 30.99,43.436 38.503,43.436 
			38.503,41.246 		"/>
	</g>
</g>
</svg>
