<?xml version="1.0" encoding="UTF-8" standalone="no"?>
<svg width="300px" height="91px" viewBox="0 0 300 91" version="1.1" xmlns="http://www.w3.org/2000/svg" xmlns:xlink="http://www.w3.org/1999/xlink" xmlns:sketch="http://www.bohemiancoding.com/sketch/ns">
    <!-- Generator: Sketch 3.4.3 (16618) - http://www.bohemiancoding.com/sketch -->
    <title>cyclo-logo</title>
    <desc>Created with Sketch.</desc>
    <defs/>
    <g id="pages" stroke="none" stroke-width="1" fill="none" fill-rule="evenodd" sketch:type="MSPage">
        <g id="home-desktop-2" sketch:type="MSArtboardGroup" transform="translate(-550.000000, -142.000000)" fill="#181818">
            <g id="header-home" sketch:type="MSLayerGroup">
                <path d="M804.685602,178.03488 C799.896158,178.03488 796.01492,181.930435 796.01492,186.73359 C796.01492,191.535945 799.896158,195.428295 804.685602,195.428295 C809.47824,195.428295 813.365869,191.535945 813.365869,186.73359 C813.365869,181.930435 809.47824,178.03488 804.685602,178.03488 L804.685602,178.03488 Z M624.840245,196.193307 C624.591827,195.639775 624.375359,195.082237 624.172471,194.514286 C623.88651,193.718032 623.64528,192.908961 623.447984,192.070252 C623.306601,191.457441 623.185986,190.851839 623.09253,190.234222 C623.035018,189.842504 622.905617,189.473215 622.866477,189.077492 L584.252188,189.077492 L590.152725,197.183417 L625.230046,197.183417 C625.072688,196.869402 624.981628,196.516935 624.840245,196.193307 L624.840245,196.193307 Z M804.685602,209.906652 C791.921208,209.906652 781.577096,199.535329 781.577096,186.73359 C781.577096,173.935857 791.921208,163.553319 804.685602,163.553319 C817.447599,163.553319 827.797302,173.935857 827.797302,186.73359 C827.797302,199.535329 817.447599,209.906652 804.685602,209.906652 L804.685602,209.906652 Z M779.563389,209.023083 L749.624576,209.023083 L749.624576,164.099642 L765.902772,164.099642 L765.902772,194.599198 L779.563389,194.599198 L779.563389,209.023083 Z M735.927215,180.57424 C734.354431,179.003362 732.190554,178.03488 729.794235,178.03488 C729.219917,178.03488 728.65838,178.095761 728.116013,178.203904 C727.750974,178.277602 727.394721,178.404169 727.044059,178.524328 C726.865933,178.582805 726.67902,178.621256 726.504089,178.69175 C726.087928,178.863977 725.686944,179.090677 725.296344,179.330194 C725.206083,179.385467 725.103041,179.423918 725.012779,179.4856 C724.536711,179.799615 724.086203,180.1657 723.669243,180.587057 C723.249887,181.00441 722.888043,181.45781 722.57093,181.933639 C722.510223,182.024159 722.471084,182.127496 722.416767,182.218816 C722.176336,182.61454 721.947088,183.01507 721.780145,183.435627 C721.722633,183.575011 721.693079,183.728013 721.644353,183.870602 C721.508562,184.264724 721.372771,184.658044 721.292094,185.065784 C721.263339,185.201964 721.272924,185.347757 721.246564,185.487141 C721.130742,186.308227 721.130742,187.140529 721.246564,187.966422 C721.266534,188.112214 721.263339,188.265217 721.29529,188.407806 C721.372771,188.805131 721.505367,189.192043 721.641158,189.579756 C721.689883,189.728753 721.722633,189.891369 721.78334,190.03636 C721.940698,190.428079 722.154769,190.800572 722.374432,191.166656 C722.447919,191.290019 722.499041,191.426199 722.580515,191.544756 C722.894433,192.018984 723.253082,192.468378 723.672438,192.885731 C725.366636,194.586381 727.588024,195.437908 729.815003,195.431499 L729.79743,209.914663 C723.888107,209.914663 717.971595,207.650868 713.464917,203.12568 C713.461722,203.122476 713.461722,203.119271 713.455332,203.116868 L713.452137,203.119271 C712.363409,202.027427 711.388107,200.822633 710.531822,199.532125 C710.503865,199.48326 710.474311,199.43039 710.446354,199.381526 C709.649977,198.164716 708.970221,196.872606 708.411879,195.509202 C708.387915,195.45473 708.372739,195.395451 708.349574,195.337775 C707.819988,194.010419 707.403827,192.624585 707.122659,191.189887 C707.117067,191.160248 707.117067,191.130608 707.113872,191.104974 C706.842289,189.686297 706.68573,188.226766 706.68573,186.73359 C706.68573,185.239614 706.842289,183.786491 707.105885,182.371819 C707.117067,182.34218 707.117067,182.315745 707.119464,182.287708 C707.403827,180.846601 707.817591,179.459966 708.349574,178.1254 C708.369544,178.074132 708.38472,178.018859 708.408683,177.967591 C708.970221,176.593774 709.654769,175.292051 710.451945,174.067231 C710.479902,174.029581 710.50067,173.990329 710.525432,173.951077 C712.240398,171.350836 714.466579,169.123089 717.056201,167.40081 C717.090548,167.376778 717.126493,167.361558 717.162438,167.337526 C718.388554,166.532461 719.697743,165.838743 721.071633,165.275598 C721.110773,165.258775 721.149913,165.249163 721.189053,165.233943 C722.53179,164.692426 723.932838,164.267864 725.387404,163.986692 C725.392995,163.983488 725.402581,163.983488 725.408971,163.983488 C726.829988,163.707923 728.293341,163.553319 729.794235,163.553319 C736.17803,163.553319 741.95875,166.150355 746.144321,170.349511 L735.927215,180.57424 Z M693.837465,209.023083 L677.691865,209.023083 L677.691865,189.65826 L662.294715,164.099642 L680.707233,164.099642 L685.699565,175.839976 L686.175634,175.839976 C686.652501,174.408482 687.06307,172.976988 687.660553,171.60317 L690.870023,164.099642 L709.166719,164.099642 L693.837465,189.65826 L693.837465,209.023083 Z M550,142 L565.685507,163.559727 L645.575595,163.559727 C652.442648,163.650247 658.093967,166.227257 662.204453,170.349511 L651.990542,180.57424 C650.417758,179.003362 648.253882,178.03488 645.862355,178.03488 C645.283244,178.03488 644.728097,178.095761 644.181736,178.203904 C643.791935,178.280806 643.408524,178.413782 643.029107,178.546758 C642.105725,178.883203 641.652022,179.129929 641.211898,179.411902 C640.608026,179.793207 640.155121,180.162496 639.73257,180.587057 C638.889865,181.431375 638.259633,182.409469 637.833887,183.456454 C637.013547,185.599289 637.013547,187.854273 637.794747,189.880154 C638.044763,190.525007 638.301968,191.014455 638.609495,191.483876 C638.94498,192.004565 639.31641,192.46197 639.738961,192.885731 C641.434756,194.586381 643.656144,195.437908 645.880727,195.431499 L645.86555,209.914663 C639.955428,209.914663 634.039715,207.650868 629.533037,203.12568 C628.640009,202.245315 627.840437,201.303269 627.11595,200.289127 L592.410058,200.289127 L596.022909,205.256499 L797.396797,232.321111 C798.272253,232.459694 799.153299,232.582256 800.048724,232.680786 C801.70458,232.832187 803.173524,232.909089 804.662437,232.909089 C829.695986,232.917099 849.994407,212.569376 849.999998,187.461754 C850.006389,162.361342 829.714357,142.003204 804.685602,142 L550,142 Z M626.436194,174.229846 C626.560802,174.032785 626.702984,173.845337 626.838775,173.645873 C627.626366,172.497954 628.492236,171.406109 629.467537,170.418402 C629.493897,170.395172 629.503482,170.370339 629.525049,170.346307 C629.536232,170.3407 629.541823,170.337495 629.551409,170.331087 C630.55307,169.323354 631.667359,168.442188 632.83836,167.633918 C633.052431,167.486523 633.264905,167.34073 633.481372,167.202147 C633.759345,167.028317 634.013355,166.823245 634.296121,166.659028 L567.938047,166.659028 L573.835389,174.763352 L626.067959,174.763352 C626.176592,174.579108 626.318774,174.414089 626.436194,174.229846 L626.436194,174.229846 Z M623.074158,183.443637 C623.134864,183.005457 623.147645,182.562471 623.234711,182.127496 C623.509489,180.758484 623.904083,179.433531 624.404914,178.161448 C624.429676,178.11018 624.436066,178.053305 624.456035,178.005241 C624.475206,177.959581 624.478401,177.911517 624.49837,177.865857 L576.095917,177.865857 L581.994856,185.974987 L622.76024,185.974987 C622.786599,185.111444 622.953543,184.285551 623.074158,183.443637 L623.074158,183.443637 Z" id="cyclo-logo" sketch:type="MSShapeGroup"/>
            </g>
        </g>
    </g>
</svg>