<?xml version="1.0" standalone="no"?>
<!DOCTYPE svg PUBLIC "-//W3C//DTD SVG 20010904//EN"
 "http://www.w3.org/TR/2001/REC-SVG-20010904/DTD/svg10.dtd">
<svg version="1.0" xmlns="http://www.w3.org/2000/svg"
 width="835.000000pt" height="835.000000pt" viewBox="0 0 835.000000 835.000000"
 preserveAspectRatio="xMidYMid meet">
<metadata>
Created by potrace 1.11, written by Peter Selinger 2001-2013
</metadata>
<g transform="translate(0.000000,835.000000) scale(0.100000,-0.100000)"
fill="#000000" stroke="none">
<path d="M4149 7811 c-188 -82 -619 -356 -909 -577 -113 -86 -229 -203 -258
-260 -49 -97 -73 -290 -53 -424 12 -78 131 -1323 127 -1327 -1 -1 -179 69
-396 156 -670 269 -1095 423 -1261 457 -185 37 -211 -31 -145 -386 46 -245
154 -657 232 -881 75 -218 154 -322 295 -391 100 -50 141 -62 867 -254 423
-112 631 -172 628 -180 -2 -6 -118 -148 -258 -315 -562 -673 -795 -982 -828
-1101 -15 -51 8 -91 68 -116 180 -78 1101 -142 1380 -97 127 21 196 57 291
154 42 43 92 103 111 133 91 146 772 1142 778 1139 4 -3 118 -172 253 -375
401 -606 636 -932 747 -1039 50 -47 67 -57 95 -57 68 0 123 71 220 286 104
230 249 626 316 868 77 275 59 406 -86 609 -32 44 -255 306 -495 581 -241 275
-436 501 -434 503 2 2 136 40 297 84 762 208 1226 352 1373 426 94 48 116 94
80 166 -47 92 -363 373 -704 627 -323 240 -442 300 -596 300 -140 0 -223 -30
-907 -330 -351 -155 -641 -279 -644 -277 -2 3 3 132 11 288 29 541 38 796 39
1129 1 457 -9 503 -114 507 -41 2 -70 -4 -120 -26z m97 -158 c9 -61 -2 -850
-16 -1103 -36 -675 -85 -1467 -98 -1603 l-7 -67 -116 147 c-431 548 -711 962
-853 1264 -77 163 -89 209 -94 350 -6 201 22 276 145 389 111 102 420 320 688
485 106 66 323 184 337 185 4 0 10 -21 14 -47z m1795 -1306 c184 -89 741 -519
953 -736 l60 -60 -50 -22 c-217 -95 -1099 -350 -2144 -619 -195 -50 -394 -101
-441 -114 l-86 -22 85 131 c204 312 500 721 673 930 113 136 320 346 399 406
83 63 151 95 264 125 123 33 189 28 287 -19z m-936 -289 c-177 -191 -493 -613
-748 -998 -49 -74 -90 -136 -91 -137 -3 -3 44 707 51 767 l8 65 410 181 c226
100 414 182 419 183 4 1 -17 -27 -49 -61z m-1921 -106 c143 -240 496 -737 739
-1037 36 -44 64 -81 63 -82 -1 -2 -588 242 -763 317 -27 11 -24 -9 -68 475
-19 209 -37 395 -39 414 -3 18 -4 32 -2 30 2 -2 34 -55 70 -117z m-1722 -272
c268 -75 928 -330 1867 -722 251 -105 500 -209 554 -231 53 -22 94 -44 90 -48
-13 -10 -421 -151 -618 -212 -547 -170 -913 -249 -1160 -251 -144 -1 -194 10
-322 69 -101 47 -138 78 -183 155 -89 152 -273 804 -320 1130 -6 41 -13 90
-16 108 -3 17 -3 32 -1 32 2 0 51 -13 109 -30z m4059 -1077 c134 -153 272
-311 308 -352 l66 -74 -50 25 c-100 51 -406 167 -645 246 -238 78 -688 211
-719 213 -34 1 35 22 374 109 193 49 364 94 380 99 17 5 33 10 37 10 3 1 116
-124 249 -276z m-1270 148 c57 -57 32 -155 -46 -181 -57 -19 -106 6 -132 68
-44 104 97 193 178 113z m329 -256 c833 -231 1412 -468 1600 -655 59 -60 132
-168 159 -238 42 -106 21 -236 -95 -581 -115 -342 -304 -791 -333 -791 -41 0
-517 680 -1015 1449 -240 370 -556 868 -556 876 0 3 8 4 18 1 9 -2 109 -30
222 -61z m-878 -262 c-136 -158 -263 -305 -282 -326 l-36 -39 -449 119 -449
120 69 13 c277 50 650 154 1067 295 167 56 309 103 315 104 7 0 -99 -128 -235
-286z m425 -310 c-5 -561 -10 -664 -47 -935 -45 -327 -104 -477 -247 -622
-114 -118 -167 -131 -503 -130 -414 1 -991 58 -990 98 1 17 96 153 229 326
347 451 1534 1851 1554 1831 6 -6 7 -224 4 -568z m383 104 l225 -351 -258
-381 c-142 -209 -262 -384 -266 -388 -5 -5 -4 16 0 45 37 233 64 827 56 1208
-5 202 -4 251 6 237 7 -10 113 -176 237 -370z"/>
</g>
</svg>
