<?xml version="1.0" standalone="no"?>
<!DOCTYPE svg PUBLIC "-//W3C//DTD SVG 20010904//EN"
 "http://www.w3.org/TR/2001/REC-SVG-20010904/DTD/svg10.dtd">
<svg version="1.0" xmlns="http://www.w3.org/2000/svg"
 width="1284.000000pt" height="1284.000000pt" viewBox="0 0 1284.000000 1284.000000"
 preserveAspectRatio="xMidYMid meet">
<metadata>
Created by potrace 1.11, written by Peter Selinger 2001-2013
</metadata>
<g transform="translate(0.000000,1284.000000) scale(0.100000,-0.100000)"
fill="#000000" stroke="none">
<path d="M5245 12810 c4 -14 83 -191 175 -395 306 -674 385 -880 465 -1205 65
-268 88 -453 88 -725 0 -267 -26 -499 -88 -792 -13 -64 -23 -118 -22 -120 6
-5 186 621 226 784 67 273 92 442 98 665 6 216 -4 331 -42 493 -73 308 -225
586 -486 890 -117 136 -422 435 -414 405z"/>
<path d="M8596 12540 c-3 -14 -24 -214 -46 -445 -64 -654 -105 -926 -186
-1219 -135 -489 -390 -937 -772 -1355 -133 -146 -104 -124 114 85 294 283 515
511 617 636 522 637 606 1245 308 2228 -23 75 -30 90 -35 70z"/>
<path d="M2231 11347 c24 -19 181 -132 349 -252 550 -394 708 -521 940 -754
371 -374 616 -787 796 -1343 21 -65 40 -116 42 -114 6 6 -137 585 -189 766
-260 901 -649 1325 -1460 1593 -124 41 -480 137 -509 137 -7 0 7 -15 31 -33z"/>
<path d="M6747 11330 c-3 -19 -11 -91 -17 -160 -37 -397 -128 -749 -415 -1595
-165 -487 -276 -844 -290 -932 -3 -24 7 -5 28 52 80 212 181 416 378 760 302
528 415 795 458 1082 16 103 14 316 -4 417 -17 96 -61 242 -105 344 l-28 67
-5 -35z"/>
<path d="M4294 10733 c186 -408 278 -734 451 -1598 57 -286 113 -563 125 -615
26 -119 102 -401 106 -397 2 2 -5 55 -16 118 -33 194 -41 337 -50 849 -9 526
-17 632 -56 830 -80 399 -266 695 -577 918 l-45 32 62 -137z"/>
<path d="M11355 10622 c-11 -15 -123 -171 -249 -347 -406 -567 -530 -722 -765
-955 -369 -366 -729 -583 -1286 -776 -99 -35 -177 -63 -172 -63 16 -2 557 131
712 174 1055 294 1481 741 1752 1843 19 79 33 145 31 147 -1 2 -12 -9 -23 -23z"/>
<path d="M9113 10447 c-144 -216 -407 -514 -665 -757 -86 -82 -334 -303 -551
-493 -217 -190 -478 -428 -579 -527 -178 -177 -181 -182 -33 -61 155 127 282
209 795 514 356 211 513 324 677 487 205 202 338 447 392 718 19 98 35 212 29
212 -2 -1 -31 -42 -65 -93z"/>
<path d="M6893 9055 c-363 -477 -479 -666 -563 -916 -63 -190 -94 -449 -74
-634 l8 -80 7 111 c16 251 99 447 366 860 196 304 271 441 326 604 24 73 58
210 52 210 -2 0 -57 -70 -122 -155z"/>
<path d="M2390 9117 c352 -242 650 -530 1189 -1147 151 -173 339 -385 417
-470 147 -160 382 -395 325 -325 -219 267 -280 358 -526 775 -190 322 -268
445 -365 575 -300 402 -622 596 -1080 650 l-55 7 95 -65z"/>
<path d="M5537 9100 c-12 -65 -67 -524 -77 -640 -39 -457 35 -801 245 -1135
75 -119 85 -127 36 -30 -50 102 -84 205 -107 331 -16 86 -18 137 -14 379 2
154 4 402 4 550 1 288 -6 345 -58 508 -23 71 -23 71 -29 37z"/>
<path d="M1215 8799 c-171 -10 -360 -41 -575 -95 -260 -65 -371 -101 -340
-108 14 -3 214 -24 445 -46 486 -47 730 -79 940 -121 353 -70 665 -180 937
-330 209 -114 481 -311 688 -498 129 -115 135 -116 25 0 -56 57 -168 174 -250
259 -82 85 -205 209 -274 274 -535 508 -995 700 -1596 665z"/>
<path d="M10819 8585 c-104 -54 -346 -151 -524 -210 -272 -91 -568 -162 -1160
-280 -286 -57 -572 -115 -635 -130 -138 -31 -381 -97 -377 -101 2 -2 52 5 113
15 187 33 343 42 859 51 534 9 664 19 874 66 119 27 267 77 356 121 147 74
324 214 427 339 60 72 122 154 116 154 -1 -1 -24 -12 -49 -25z"/>
<path d="M8055 8430 c-332 -140 -512 -230 -661 -329 -195 -130 -332 -263 -448
-436 -51 -76 -156 -263 -156 -279 0 -4 27 33 59 81 33 49 97 125 143 169 142
136 267 216 623 399 354 182 483 268 630 415 49 49 85 90 80 90 -6 -1 -127
-50 -270 -110z"/>
<path d="M4420 8052 c191 -452 303 -656 464 -844 120 -140 307 -283 491 -375
49 -25 88 -43 85 -40 -3 3 -39 28 -81 56 -136 90 -273 244 -390 436 -23 39
-100 182 -171 318 -184 355 -268 486 -397 621 -131 136 -131 135 -1 -172z"/>
<path d="M12800 7593 c-8 -3 -182 -82 -387 -174 -445 -202 -590 -264 -767
-329 -682 -251 -1252 -288 -1976 -131 -51 12 -95 19 -97 18 -5 -6 618 -185
784 -226 273 -67 442 -92 665 -98 216 -6 331 4 493 42 274 65 537 200 804 413
97 77 524 492 506 491 -5 0 -17 -3 -25 -6z"/>
<path d="M8041 7389 c-263 -25 -507 -111 -735 -259 -53 -34 -96 -64 -96 -66 0
-2 28 12 63 31 229 126 440 154 976 129 356 -16 529 -11 684 21 75 16 201 55
195 60 -7 7 -577 75 -708 85 -152 11 -256 11 -379 -1z"/>
<path d="M3762 6917 c68 -51 173 -131 233 -177 342 -261 623 -404 904 -461
113 -23 390 -35 471 -21 l55 10 -81 1 c-246 3 -456 89 -884 362 -363 232 -491
298 -684 353 -149 44 -151 37 -14 -67z"/>
<path d="M1878 6885 c-89 -17 -240 -64 -336 -105 l-67 -28 35 -6 c19 -3 73 -8
120 -11 228 -17 557 -83 880 -176 113 -32 471 -148 795 -257 514 -173 908
-292 921 -279 2 2 -15 9 -38 16 -156 46 -412 171 -783 381 -537 303 -732 392
-996 451 -124 28 -416 35 -531 14z"/>
<path d="M8715 6779 c148 -53 459 -208 740 -369 530 -304 789 -414 1087 -461
50 -7 136 -10 240 -6 186 6 295 29 478 100 123 49 123 49 -85 67 -377 33 -770
133 -1495 380 -427 145 -622 210 -770 254 -96 28 -284 76 -297 75 -4 0 42 -18
102 -40z"/>
<path d="M7485 6590 l-60 -7 66 -1 c244 -7 482 -100 844 -333 356 -228 483
-299 635 -353 76 -28 231 -68 237 -62 6 6 -500 383 -612 456 -134 87 -338 189
-460 229 -206 68 -445 94 -650 71z"/>
<path d="M1474 6175 c-322 -47 -605 -176 -919 -418 -121 -93 -555 -509 -537
-515 5 -1 182 76 393 171 447 203 594 266 779 335 676 251 1236 290 1957 137
64 -13 118 -23 120 -22 5 6 -621 186 -787 227 -177 43 -340 74 -485 90 -123
14 -411 11 -521 -5z"/>
<path d="M7414 6037 c77 -49 185 -139 246 -204 104 -111 201 -264 351 -553
156 -299 227 -422 306 -527 56 -76 212 -237 220 -229 2 2 -21 64 -53 137 -31
74 -84 199 -117 279 -156 370 -286 581 -476 770 -132 132 -217 196 -367 277
-90 49 -153 78 -110 50z"/>
<path d="M5538 5734 c-88 -45 -190 -77 -314 -100 -86 -16 -137 -18 -384 -14
-537 8 -801 6 -875 -8 -84 -16 -247 -63 -240 -70 6 -7 502 -68 671 -82 166
-15 410 -8 544 15 196 34 428 127 598 239 40 26 72 50 72 52 0 6 2 6 -72 -32z"/>
<path d="M8519 5665 c219 -268 281 -359 526 -775 266 -452 383 -621 555 -796
246 -253 514 -382 890 -429 l55 -7 -89 61 c-366 252 -661 537 -1222 1181 -136
157 -310 353 -385 435 -142 155 -387 401 -330 330z"/>
<path d="M7104 5558 c69 -126 109 -278 126 -485 9 -102 8 -202 -5 -470 -16
-345 -11 -532 16 -666 15 -72 62 -232 66 -221 10 33 76 608 85 742 28 413 -48
740 -246 1059 -66 108 -92 133 -42 41z"/>
<path d="M6005 5387 c-51 -78 -159 -193 -252 -268 -105 -83 -223 -154 -504
-300 -270 -140 -397 -214 -493 -286 -68 -52 -213 -189 -226 -214 -12 -21 432
165 655 276 347 171 553 341 722 595 56 83 148 249 141 255 -2 2 -21 -24 -43
-58z"/>
<path d="M6581 5354 c-2 -148 -48 -325 -127 -489 -48 -102 -116 -216 -257
-436 -158 -246 -237 -387 -287 -516 -33 -84 -80 -245 -80 -276 0 -9 180 225
332 433 299 406 418 703 434 1080 3 69 1 159 -4 200 l-9 75 -2 -71z"/>
<path d="M9610 5130 c118 -123 267 -275 330 -338 548 -543 982 -754 1551 -753
261 0 516 40 839 130 231 65 240 68 210 75 -14 3 -214 24 -445 46 -471 46
-656 69 -860 106 -669 121 -1159 361 -1674 818 -185 164 -177 152 49 -84z"/>
<path d="M4738 4983 c7 -3 16 -2 19 1 4 3 -2 6 -13 5 -11 0 -14 -3 -6 -6z"/>
<path d="M4595 4960 c-174 -31 -337 -41 -850 -50 -534 -9 -664 -19 -874 -66
-119 -27 -267 -77 -356 -121 -190 -95 -372 -255 -516 -451 l-31 -42 99 46
c386 181 785 299 1473 435 695 138 977 200 1140 253 59 19 37 18 -85 -4z"/>
<path d="M7865 4695 c3 -16 11 -70 19 -120 28 -171 37 -332 46 -825 9 -526 17
-632 56 -830 80 -402 259 -684 581 -920 l42 -31 -63 138 c-189 414 -277 727
-461 1648 -62 314 -132 640 -154 725 -44 168 -73 265 -66 215z"/>
<path d="M3635 4285 c-505 -123 -764 -206 -1000 -320 -609 -294 -930 -753
-1145 -1635 -16 -68 -30 -129 -30 -134 0 -13 38 39 285 383 119 168 258 358
307 424 529 700 994 1043 1773 1308 77 26 133 47 125 47 -8 0 -150 -33 -315
-73z"/>
<path d="M5660 4318 c-189 -165 -363 -283 -770 -523 -453 -266 -620 -383 -797
-556 -250 -244 -388 -530 -428 -884 l-7 -60 72 103 c242 349 532 651 1095
1141 360 314 630 558 765 695 114 115 138 144 70 84z"/>
<path d="M6801 4189 c-46 -156 -186 -444 -392 -804 -372 -653 -469 -917 -469
-1275 0 -201 36 -371 120 -568 l28 -67 5 35 c3 19 11 91 17 160 14 146 48 350
92 540 51 224 137 506 341 1110 179 532 284 875 275 902 -2 6 -10 -9 -17 -33z"/>
<path d="M8481 3955 c-1 -21 149 -627 194 -780 258 -889 651 -1314 1460 -1579
114 -37 410 -118 480 -130 l40 -8 -45 35 c-25 19 -182 132 -350 252 -552 395
-708 521 -940 754 -368 371 -595 749 -786 1311 -29 85 -53 151 -53 145z"/>
<path d="M4963 3063 c-463 -459 -592 -618 -738 -906 -243 -482 -250 -1002 -22
-1767 27 -89 36 -109 41 -90 3 14 24 214 46 445 64 654 105 926 186 1219 135
489 390 937 772 1355 75 83 98 111 89 111 -2 0 -171 -165 -374 -367z"/>
<path d="M6882 2957 c-173 -593 -221 -827 -229 -1139 -6 -216 4 -331 42 -493
73 -308 225 -586 486 -890 117 -136 422 -435 414 -405 -4 14 -83 192 -176 397
-207 457 -267 597 -336 787 -242 665 -279 1220 -128 1933 13 64 23 118 22 120
-2 1 -44 -138 -95 -310z"/>
</g>
</svg>
